<?xml version="1.0" encoding="UTF-8"?>
<svg id="Layer_1" data-name="Layer 1" xmlns="http://www.w3.org/2000/svg" viewBox="0 0 1822.14 2175.83">
  <defs>
    <style>
      .cls-1 {
        fill: #8FF8F9;
      }

      .cls-1, .cls-2 {
        stroke-width: 0px;
      }

      .cls-2 {
        fill: #D781FF;
      }
    </style>
  </defs>
  <path class="cls-1" d="M335.4,1302.8c-2.3-7.67-2.94-9.72-4.47-18.52-3.84-53.46,2.04-107.1,13.3-158.02,26.18-118.39,79.4-224.93,165.86-312.42,58.99-59.7,130.26-100.62,209.26-126.04,82.5-26.55,168.86-34.15,254.46-23.87,185.6,22.28,331.79,109.11,425.2,275.4,64.07,114.04,90.17,236.44,79.45,366.76h-320.36c-9.79,9.71-12.29,17.06-15.06,24.26-29.88,77.79-91.24,120.96-168.87,132.09-53.93,7.73-110.88,10.1-166.23-8.22-57.3-18.97-100.82-51.51-129.9-104.37-8.25-15-11.09-32.77-23.92-47.03h-318.73ZM1150.15,1304.15c2.24-20.64,2.17-26.44.49-43.86-4.48-37.55-8.53-56.41-18.66-84.01-14.34-39.06-28.05-77.39-56.14-109.14-32.81-37.08-71.58-59.65-121.57-70.26-44.95-9.55-88.34-5.09-128.52,6.58-58.94,17.11-98.64,61.71-125.38,118.09-14.37,30.31-22.85,62.23-31.28,93.88-7.2,27.04-6.03,56.32-8.73,86.44,164.79-32.83,326.66-32.24,489.78,2.28Z"/>
  <path class="cls-2" d="M335.4,1302.8c106.37,0,219-.93,324.98-.93,4.77,19.3,10.8,33.89,17.67,47.96,29.07,52.86,72.59,85.4,129.9,104.37,55.35,18.32,112.3,15.95,166.23,8.22,77.63-11.13,138.99-54.3,168.87-132.09,2.76-7.2,7.11-22.34,7.11-24.26h328.31c-5.54,102.66-40.52,194.84-105.49,273.71-93.14,113.09-216.75,170.33-360.72,187.45-107.8,12.82-214.14,7.63-318.59-23.28-200.37-59.29-317.56-192.7-353.82-398.1-2.52-14.3-6.31-28.35-4.44-43.06Z"/>
  <path class="cls-1" d="M820.63,508.9c-12.09-80.89-23.61-158.77-35.82-236.58-8.19-52.14-14.73-104.59-24.01-156.63-2.01-11.26-1.61-23.28-.33-34.72,1.69-15.11,8.78-27.33,24.18-33.16,41.75-15.79,83.44-31.76,125.55-47.8,49.86,21.7,103.67,32.33,153.47,63.82-16.56,148.33-44.02,294.61-63.36,444.16-58.76,30.15-118.87,28.98-179.68.92Z"/>
  <path class="cls-1" d="M1562.93,406.13c-29.48,117.77-105.07,206.19-189.48,295.68-48.86-19.03-86.58-53.75-125.5-84.26,43.4-129.25,65.27-257.06,57.05-388.44,29.73-18.28,51.69.3,71.75,10.86,65.79,34.64,123.94,79.36,166.71,141.67,4.84,7.06,10.64,13.46,19.46,24.49Z"/>
  <path class="cls-1" d="M573.64,619.58c-41.38,27.18-77.46,63.84-127.86,81.86-83.81-88.79-157.4-179.56-188.55-294.82,104.91-127.57,200.59-195.36,257.64-179.09-7.31,130.98,12.74,259.9,58.77,392.05Z"/>
  <path class="cls-1" d="M151.22,687.5c39.44,102.57,94.56,193.51,168.21,274.96-20.09,44.76-37.25,89.82-62.09,129.69-65.95-4.1-191.81-56.3-240.15-122.9,18.94-130.65,87.81-277.44,134.02-281.75Z"/>
  <path class="cls-1" d="M1678.59,688.49c17.31-5.56,24.67,2.61,30.36,11.78,36.35,58.63,70.64,117.78,85.76,186.78,5.67,25.88,9.22,52.89,21.42,80.21-62.43,74.85-148.13,104.92-236.54,127.89-24.62-18.51-27.53-45.25-39.3-66.37-8.53-15.31-14.7-33-22.1-49.5-6.57-14.65-3.44-25.79,7.05-36.57,41.45-42.61,74.83-91.25,103.35-143.07,19.71-35.81,36.08-73.39,49.99-111.17Z"/>
  <path class="cls-2" d="M300.66,1490.02c-37.09,44.02-71.9,86.49-100.79,133.57-28.56,46.55-48.35,97.48-73.56,153.45C52.51,1686.52,18.32,1588.3,0,1481.11c65.7-68.75,147.64-102.81,239.15-123.58,22.92,44.28,42.04,87.08,61.51,132.49Z"/>
  <path class="cls-2" d="M1521.92,1493.86c13.85-48,40.41-88.45,58.64-136.09,93.58,19.7,175.97,54.45,241.58,123.99-19.22,106.74-52.82,205.26-126.19,289.15-42.91-101.43-94.42-195.55-174.02-277.05Z"/>
  <path class="cls-2" d="M1260.14,1803.57c42.69-24.93,83.47-51.66,130.05-71.76,59.56,62.25,106.17,128.86,118.68,216.62-77.33,73.33-161.6,134.18-268.41,161.61,26.45-101.11,33.97-200.85,19.68-306.47Z"/>
  <path class="cls-2" d="M592.23,2106.58c-54.12,6.12-190.49-75.05-271.23-158.91,10.32-86.6,58.48-153.29,118.43-216.52,45.7,22.32,87.65,46.74,129.52,73.12-15.71,103.57-6.63,202.81,23.28,302.32Z"/>
  <path class="cls-2" d="M801.28,2149.83c9.89-77.29,8.16-152.93-4.41-228.29-.63-3.76,7.59-15.19,7.59-15.19,77.73-10.76,156.13-9.35,237.68-.77,3.19,42.7-5.42,82.61-5.71,122.68-.29,39.6,14.52,77.41,12.19,118.55-42.96,13.22-85.26,27.65-127.54,28.94-39.26,1.19-79.02-13.5-119.8-25.92Z"/>
  <path class="cls-2" d="M1150.15,1306.07c-163.12-34.51-324.99-37.03-489.78-4.2,2.7-30.12,1.52-59.4,8.73-86.44,8.43-31.65,16.91-63.57,31.28-93.88,26.73-56.39,66.44-100.98,125.38-118.09,40.18-11.66,83.56-16.12,128.52-6.58,49.99,10.62,88.76,33.18,121.57,70.26,28.09,31.75,41.8,70.07,56.14,109.14,15.71,38.55,18.66,84.01,18.66,84.01,0,0,2.24,22.2-.49,45.78Z"/>
</svg>